# xmcd CD database file
#
# Track frame offsets:
#	150
#	16635
#	43652
#	69080
#	97127
#	115100
#	141962
#	165842
#
# Disc length: 2485 seconds
#
# Revision: 0
# Processed by: cddbd v1.5PL3 Copyright (c) Steve Scherf et al.
# Submitted via: CDex 1.50
#
DISCID=5a09b308
DTITLE=waterlillies - Tired Of You
DYEAR=1992
DGENRE=Pop
TTITLE0=Tired Of You (Album Version)
TTITLE1=Tired Of You (E-Smoove's Groovy Mix)
TTITLE2=Tired Of You (E-Smoove's Groovy Dub)
TTITLE3=Tired Of You (Throwin' Shade Mix)
TTITLE4=Sunshine Like You (Limb-less Mix)
TTITLE5=Sunshine Like You (Mo-mo Mix)
TTITLE6=Sunshine Like You (Shade Lady Dub)
TTITLE7=Sunshine Like You (E-smoove's Groovy Edit)
EXTD=YEAR: 1992
EXTT0=
EXTT1=
EXTT2=
EXTT3=
EXTT4=
EXTT5=
EXTT6=
EXTT7=
PLAYORDER=
